# xmcd
#
# Track frame offsets:
#	183
#	13738
#	29148
#	45368
#	63253
#	80045
#	96948
#	111930
#	138730
#	155453
#	171590
#	194948
#	210128
#	220415
#	234938
#	249795
#
# Disc length: 3513 seconds
#
# Revision: 1
# Processed by: cddbd v1.5.2PL0 Copyright (c) Steve Scherf et al.
# Submitted via: EasyCDDAExtractor 12.0.1.1
#
DISCID=e60db710
DTITLE=Harry Belafonte - Jamaica Farewell
DYEAR=1992
DGENRE=Latin
TTITLE0=Jamaica Farewell
TTITLE1=Island In The Sun
TTITLE2=Matilda, Matilda
TTITLE3=Angelina
TTITLE4=When The Saint Go Marching In
TTITLE5=Shenandoah
TTITLE6=Kingston Market
TTITLE7=Danny Boy
TTITLE8=Jump The Line
TTITLE9=Man Smart
TTITLE10=Mama Look A Boo Boo
TTITLE11=Coconut Woman
TTITLE12=Manha De Carneval
TTITLE13=Scarlet Ribbons
TTITLE14=Hava Nagila
TTITLE15=Day-O (Banana Boat Song)
EXTD=
EXTT0=
EXTT1=
EXTT2=
EXTT3=
EXTT4=
EXTT5=
EXTT6=
EXTT7=
EXTT8=
EXTT9=
EXTT10=
EXTT11=
EXTT12=
EXTT13=
EXTT14=
EXTT15=
PLAYORDER=
